<?xml version="1.0" encoding="UTF-8"?>
<svg xmlns="http://www.w3.org/2000/svg" xmlns:xlink="http://www.w3.org/1999/xlink" width="px" height="px" viewBox="0 0 36 36" version="1.1">
<g id="surface1">
<path style=" stroke:none;fill-rule:nonzero;fill:rgb(90.196078%,0%,13.72549%);fill-opacity:1;" d="M 33 18 C 33 26.285156 26.285156 33 18 33 C 9.714844 33 3 26.285156 3 18 C 3 9.714844 9.714844 3 18 3 C 26.285156 3 33 9.714844 33 18 Z M 33 18 "/>
<path style=" stroke:none;fill-rule:nonzero;fill:rgb(100%,100%,100%);fill-opacity:1;" d="M 18.332031 8.5625 C 11.859375 8.5625 8.421875 12.90625 8.421875 17.640625 C 8.421875 19.839844 9.59375 22.578125 11.464844 23.449219 C 11.75 23.582031 11.902344 23.527344 11.96875 23.25 C 12.019531 23.042969 12.269531 22.023438 12.382812 21.550781 C 12.421875 21.398438 12.402344 21.269531 12.28125 21.121094 C 11.660156 20.367188 11.164062 18.984375 11.164062 17.695312 C 11.164062 14.386719 13.667969 11.1875 17.9375 11.1875 C 21.621094 11.1875 24.203125 13.699219 24.203125 17.289062 C 24.203125 21.347656 22.152344 24.15625 19.484375 24.15625 C 18.015625 24.15625 16.910156 22.941406 17.265625 21.445312 C 17.6875 19.664062 18.507812 17.738281 18.507812 16.453125 C 18.507812 15.300781 17.890625 14.339844 16.609375 14.339844 C 15.105469 14.339844 13.894531 15.894531 13.894531 17.980469 C 13.894531 19.308594 14.34375 20.207031 14.34375 20.207031 C 14.34375 20.207031 12.859375 26.496094 12.585938 27.664062 C 12.285156 28.957031 12.402344 30.769531 12.53125 31.957031 C 12.871094 32.089844 13.210938 32.222656 13.558594 32.332031 C 14.171875 31.335938 15.085938 29.703125 15.425781 28.398438 C 15.605469 27.695312 16.359375 24.832031 16.359375 24.832031 C 16.847656 25.765625 18.277344 26.554688 19.796875 26.554688 C 24.320312 26.554688 27.582031 22.394531 27.582031 17.226562 C 27.582031 12.269531 23.535156 8.5625 18.332031 8.5625 Z M 18.332031 8.5625 "/>
</g>
</svg>
