<?xml version="1.0" encoding="UTF-8"?>
<svg xmlns="http://www.w3.org/2000/svg" xmlns:xlink="http://www.w3.org/1999/xlink" width="px" height="px" viewBox="0 0 36 36" version="1.1">
<g id="surface1">
<path style=" stroke:none;fill-rule:nonzero;fill:rgb(1.176471%,60.784314%,89.803922%);fill-opacity:1;" d="M 18 3.75 C 10.128906 3.75 3.75 10.128906 3.75 18 C 3.75 25.871094 10.128906 32.25 18 32.25 C 25.871094 32.25 32.25 25.871094 32.25 18 C 32.25 10.128906 25.871094 3.75 18 3.75 Z M 18 3.75 "/>
<path style=" stroke:none;fill-rule:nonzero;fill:rgb(100%,100%,100%);fill-opacity:1;" d="M 19.929688 21.777344 L 23.617188 21.777344 L 24.195312 18.03125 L 19.929688 18.03125 L 19.929688 15.984375 C 19.929688 14.425781 20.4375 13.046875 21.890625 13.046875 L 24.230469 13.046875 L 24.230469 9.777344 C 23.820312 9.722656 22.953125 9.601562 21.308594 9.601562 C 17.878906 9.601562 15.867188 11.410156 15.867188 15.539062 L 15.867188 18.03125 L 12.34375 18.03125 L 12.34375 21.777344 L 15.867188 21.777344 L 15.867188 32.074219 C 16.566406 32.179688 17.273438 32.25 18 32.25 C 18.65625 32.25 19.296875 32.191406 19.929688 32.105469 Z M 19.929688 21.777344 "/>
</g>
</svg>
