<?xml version="1.0" encoding="UTF-8"?>
<svg xmlns="http://www.w3.org/2000/svg" xmlns:xlink="http://www.w3.org/1999/xlink" width="px" height="px" viewBox="0 0 36 36" version="1.1">
<defs>
<radialGradient id="radial0" gradientUnits="userSpaceOnUse" cx="19.38" cy="42.035" fx="19.38" fy="42.035" r="44.899" gradientTransform="matrix(0.75,0,0,0.75,0,0)">
<stop offset="0" style="stop-color:rgb(100%,86.666667%,33.333333%);stop-opacity:1;"/>
<stop offset="0.328" style="stop-color:rgb(100%,32.941176%,24.705882%);stop-opacity:1;"/>
<stop offset="0.348" style="stop-color:rgb(98.823529%,32.156863%,27.058824%);stop-opacity:1;"/>
<stop offset="0.504" style="stop-color:rgb(90.196078%,27.843137%,44.313725%);stop-opacity:1;"/>
<stop offset="0.643" style="stop-color:rgb(83.529412%,24.313725%,56.862745%);stop-opacity:1;"/>
<stop offset="0.761" style="stop-color:rgb(80%,22.352941%,64.313725%);stop-opacity:1;"/>
<stop offset="0.841" style="stop-color:rgb(78.431373%,21.568627%,67.058824%);stop-opacity:1;"/>
</radialGradient>
<radialGradient id="radial1" gradientUnits="userSpaceOnUse" cx="11.786" cy="5.54" fx="11.786" fy="5.54" r="29.813" gradientTransform="matrix(0.75,0,0,0.499725,0,1.38675)">
<stop offset="0" style="stop-color:rgb(25.490196%,40.784314%,78.823529%);stop-opacity:1;"/>
<stop offset="0.999" style="stop-color:rgb(25.490196%,40.784314%,78.823529%);stop-opacity:0;"/>
</radialGradient>
</defs>
<g id="surface1">
<path style=" stroke:none;fill-rule:nonzero;fill:url(#radial0);" d="M 25.511719 31.492188 L 10.511719 31.507812 C 7.210938 31.507812 4.511719 28.8125 4.507812 25.511719 L 4.492188 10.511719 C 4.488281 7.210938 7.1875 4.511719 10.488281 4.507812 L 25.488281 4.492188 C 28.785156 4.488281 31.488281 7.1875 31.492188 10.488281 L 31.507812 25.488281 C 31.511719 28.789062 28.8125 31.488281 25.511719 31.492188 Z M 25.511719 31.492188 "/>
<path style=" stroke:none;fill-rule:nonzero;fill:url(#radial1);" d="M 25.511719 31.492188 L 10.511719 31.507812 C 7.210938 31.507812 4.511719 28.8125 4.507812 25.511719 L 4.492188 10.511719 C 4.488281 7.210938 7.1875 4.511719 10.488281 4.507812 L 25.488281 4.492188 C 28.785156 4.488281 31.488281 7.1875 31.492188 10.488281 L 31.507812 25.488281 C 31.511719 28.789062 28.8125 31.488281 25.511719 31.492188 Z M 25.511719 31.492188 "/>
<path style=" stroke:none;fill-rule:nonzero;fill:rgb(100%,100%,100%);fill-opacity:1;" d="M 18 23.25 C 15.105469 23.25 12.75 20.894531 12.75 18 C 12.75 15.105469 15.105469 12.75 18 12.75 C 20.894531 12.75 23.25 15.105469 23.25 18 C 23.25 20.894531 20.894531 23.25 18 23.25 Z M 18 14.25 C 15.933594 14.25 14.25 15.933594 14.25 18 C 14.25 20.066406 15.933594 21.75 18 21.75 C 20.066406 21.75 21.75 20.066406 21.75 18 C 21.75 15.933594 20.066406 14.25 18 14.25 Z M 18 14.25 "/>
<path style=" stroke:none;fill-rule:nonzero;fill:rgb(100%,100%,100%);fill-opacity:1;" d="M 24.75 12.375 C 24.75 12.996094 24.246094 13.5 23.625 13.5 C 23.003906 13.5 22.5 12.996094 22.5 12.375 C 22.5 11.753906 23.003906 11.25 23.625 11.25 C 24.246094 11.25 24.75 11.753906 24.75 12.375 Z M 24.75 12.375 "/>
<path style=" stroke:none;fill-rule:nonzero;fill:rgb(100%,100%,100%);fill-opacity:1;" d="M 22.5 27.75 L 13.5 27.75 C 10.605469 27.75 8.25 25.394531 8.25 22.5 L 8.25 13.5 C 8.25 10.605469 10.605469 8.25 13.5 8.25 L 22.5 8.25 C 25.394531 8.25 27.75 10.605469 27.75 13.5 L 27.75 22.5 C 27.75 25.394531 25.394531 27.75 22.5 27.75 Z M 13.5 9.75 C 11.433594 9.75 9.75 11.433594 9.75 13.5 L 9.75 22.5 C 9.75 24.566406 11.433594 26.25 13.5 26.25 L 22.5 26.25 C 24.566406 26.25 26.25 24.566406 26.25 22.5 L 26.25 13.5 C 26.25 11.433594 24.566406 9.75 22.5 9.75 Z M 13.5 9.75 "/>
</g>
</svg>
